HIERARCHY
ROOT SpineBase
{
  OFFSET 0.000000 0.000000 0.000000
  CHANNELS 6 Xposition Yposition Zposition Zrotation Xrotation Yrotation
  JOINT SpineMid
  {
    OFFSET 0.000000 19.997454 0.000000
    CHANNELS 3 Zrotation Xrotation Yrotation
    JOINT SpineShoulder
    {
      OFFSET 0.057037 14.481651 -0.458678
      CHANNELS 3 Zrotation Xrotation Yrotation
      JOINT Neck
      {
        OFFSET -0.183320 4.544063 -0.530605
        CHANNELS 3 Zrotation Xrotation Yrotation
        JOINT Head
        {
          OFFSET -3.875627 14.136274 0.892726
          CHANNELS 3 Zrotation Xrotation Yrotation
          End Site
          {
            OFFSET 0 0 0
          }
        }
      }
      JOINT ShoulderLeft
      {
        OFFSET -13.054603 5.203411 13.168248
        CHANNELS 3 Zrotation Xrotation Yrotation
        JOINT ElbowLeft
        {
          OFFSET -21.200530 -12.330369 5.834040
          CHANNELS 3 Zrotation Xrotation Yrotation
          JOINT WristLeft
          {
            OFFSET 15.813316 9.200843 -2.389684
            CHANNELS 3 Zrotation Xrotation Yrotation
            JOINT HandLeft
            {
              OFFSET 3.731248 0.742011 -4.176236
              CHANNELS 3 Zrotation Xrotation Yrotation
              JOINT HandTipLeft
              {
                OFFSET 2.853688 2.124047 -3.665898
                CHANNELS 3 Zrotation Xrotation Yrotation
                End Site
                {
                  OFFSET 0 0 0
                }
              }
              JOINT ThumbLeft
              {
                OFFSET -2.034448 5.126547 -1.164592
                CHANNELS 3 Zrotation Xrotation Yrotation
                End Site
                {
                  OFFSET 0 0 0
                }
              }
            }
          }
        }
      }
      JOINT ShoulderRight
      {
        OFFSET -16.756772 0.579944 12.679458
        CHANNELS 3 Zrotation Xrotation Yrotation
        JOINT ElbowRight
        {
          OFFSET 10.883509 3.411591 -23.319618
          CHANNELS 3 Zrotation Xrotation Yrotation
          JOINT WristRight
          {
            OFFSET 4.874026 -18.637816 -17.102954
            CHANNELS 3 Zrotation Xrotation Yrotation
            JOINT HandRight
            {
              OFFSET 1.685435 -5.659860 -2.649382
              CHANNELS 3 Zrotation Xrotation Yrotation
              JOINT HandTipRight
              {
                OFFSET -3.750622 -4.514198 -2.430644
                CHANNELS 3 Zrotation Xrotation Yrotation
                End Site
                {
                  OFFSET 0 0 0
                }
              }
              JOINT ThumbRight
              {
                OFFSET 3.064760 -2.544614 3.427652
                CHANNELS 3 Zrotation Xrotation Yrotation
                End Site
                {
                  OFFSET 0 0 0
                }
              }
            }
          }
        }
      }
    }
  }
  JOINT HipLeft
  {
    OFFSET 3.726908 1.052132 -1.692750
    CHANNELS 3 Zrotation Xrotation Yrotation
    JOINT KneeLeft
    {
      OFFSET -36.257806 -6.071074 0.072959
      CHANNELS 3 Zrotation Xrotation Yrotation
      JOINT AnkleLeft
      {
        OFFSET 30.771612 -2.595652 18.865492
        CHANNELS 3 Zrotation Xrotation Yrotation
        JOINT FootLeft
        {
          OFFSET -7.469563 -9.442486 2.333442
          CHANNELS 3 Zrotation Xrotation Yrotation
          End Site
          {
            OFFSET 0 0 0
          }
        }
      }
    }
  }
  JOINT HipRight
  {
    OFFSET -4.391271 -2.928741 -3.256257
    CHANNELS 3 Zrotation Xrotation Yrotation
    JOINT KneeRight
    {
      OFFSET -11.490500 -1.293078 -27.579729
      CHANNELS 3 Zrotation Xrotation Yrotation
      JOINT AnkleRight
      {
        OFFSET -3.897184 -18.487854 18.875286
        CHANNELS 3 Zrotation Xrotation Yrotation
        JOINT FootRight
        {
          OFFSET 5.230225 7.148310 -2.082166
          CHANNELS 3 Zrotation Xrotation Yrotation
          End Site
          {
            OFFSET 0 0 0
          }
        }
      }
    }
  }
}
MOTION
Frames: 11
Frame Time: 0.033333
83.242643 22.709672 390.253676 -0.000000 0.000000 169.098694 -0.000000 0.000000 -169.098694 -0.000000 0.000000 0.000000 -0.000000 0.000000 0.000000 0.000000 0.000000 0.000000 -0.000000 0.000000 0.000000 -0.000000 0.000000 0.000000 -0.000000 0.000000 0.000000 -0.000000 0.000000 0.000000 0.000000 0.000000 0.000000 0.000000 0.000000 0.000000 -0.000000 0.000000 0.000000 -0.000000 0.000000 0.000000 -0.000000 0.000000 0.000000 -0.000000 0.000000 0.000000 0.000000 0.000000 0.000000 0.000000 0.000000 0.000000 -0.000000 0.000000 -169.098694 -0.000000 0.000000 0.000000 -0.000000 0.000000 0.000000 0.000000 0.000000 0.000000 -0.000000 0.000000 -169.098694 -0.000000 0.000000 0.000000 -0.000000 0.000000 0.000000 0.000000 0.000000 0.000000
82.720485 22.759683 390.269689 -0.457440 0.462257 168.206028 -0.542275 0.358985 -168.202484 -0.469780 0.745537 -0.021742 -1.207261 -1.586224 -0.131365 0.000000 0.000000 0.000000 0.470102 -0.745333 0.027856 -0.570269 0.394554 -0.817988 -0.587181 -1.808580 1.165931 -1.583191 -1.216172 -1.519000 0.000000 0.000000 0.000000 0.000000 0.000000 0.000000 0.470102 -0.745333 0.027856 -0.057462 0.939548 0.296716 1.969319 0.745802 -0.676413 -2.703206 0.496670 -1.039611 0.000000 0.000000 0.000000 0.000000 0.000000 0.000000 -0.542275 0.358985 -168.202484 -0.000000 0.000000 0.000000 0.437449 -3.251500 2.682134 0.000000 0.000000 0.000000 -0.088490 -0.490858 -170.253990 -2.820942 -1.239417 -1.134078 -4.240288 10.792767 -5.892821 0.000000 0.000000 0.000000
82.349806 22.812014 390.338182 -0.655955 0.846738 166.833119 -1.607975 -0.256145 -166.792736 -1.695266 0.705765 -0.061246 -2.560635 -3.304146 -0.408211 0.000000 0.000000 0.000000 1.545898 -1.649854 0.825761 -1.876314 1.008967 -2.329249 -0.994837 -3.386778 2.234750 -3.058202 -2.053384 -3.110538 0.000000 0.000000 0.000000 0.000000 0.000000 0.000000 0.221939 -2.248234 -0.795155 0.443384 2.538255 1.280945 3.637291 1.854175 -1.068743 -4.879698 0.222551 -2.010420 0.000000 0.000000 0.000000 0.000000 0.000000 0.000000 -0.142041 0.614319 -168.087286 -0.163017 0.243786 0.772514 1.612951 -6.422060 5.406811 0.000000 0.000000 0.000000 -0.054331 -0.758662 -170.445969 -5.181609 -2.304136 -2.258373 -8.999356 22.494996 -11.365076 0.000000 0.000000 0.000000
82.130606 22.866666 390.459154 -0.599313 1.154548 165.065400 -2.076804 -0.437746 -165.002459 -2.302436 1.033152 -0.065794 -4.038563 -5.162002 -0.836234 0.000000 0.000000 0.000000 1.761149 -2.325182 0.969323 -2.460342 1.407099 -3.147474 -1.257907 -4.742523 3.223019 -4.249330 -2.375822 -4.719092 0.000000 0.000000 0.000000 0.000000 0.000000 0.000000 0.039772 -3.291743 -1.103620 0.770167 3.568686 1.595523 4.947343 3.291572 -1.194905 -6.538041 -0.671286 -2.957437 0.000000 0.000000 0.000000 0.000000 0.000000 0.000000 0.142040 0.874200 -167.049723 -0.183033 0.312191 1.555703 2.034165 -8.765821 7.059876 0.000000 0.000000 0.000000 0.102315 -0.779060 -169.756073 -7.087342 -3.158407 -3.309543 -13.227669 32.522071 -15.020968 0.000000 0.000000 0.000000
82.062885 22.923639 390.632606 -0.291276 1.386791 162.999040 -2.324052 -0.642271 -162.917578 -2.760830 1.348962 -0.053711 -5.623715 -7.164799 -1.419359 0.000000 0.000000 0.000000 1.613848 -2.911180 0.921651 -2.813248 1.722237 -3.736083 -1.404217 -5.882641 4.143330 -5.004823 -2.100405 -6.291839 0.000000 0.000000 0.000000 0.000000 0.000000 0.000000 -0.328234 -4.289373 -1.354889 1.179354 4.439719 1.688101 5.855960 5.010872 -1.071019 -7.693502 -2.060756 -3.883364 0.000000 0.000000 0.000000 0.000000 0.000000 0.000000 0.647232 1.135802 -165.776270 -0.169304 0.345917 2.592565 2.071256 -10.501246 7.931041 0.000000 0.000000 0.000000 0.363408 -0.529976 -168.278348 -8.556399 -3.782334 -4.249430 -16.621133 39.545258 -16.704897 0.000000 0.000000 0.000000
82.146643 22.982933 390.858537 0.264373 1.544477 160.730670 -2.353638 -0.848242 -160.636484 -3.076009 1.656775 -0.025435 -7.303068 -9.314040 -2.159420 0.000000 0.000000 0.000000 1.107461 -3.411912 0.675233 -2.937455 1.948834 -4.094961 -1.455409 -6.812170 5.005517 -5.207018 -1.194789 -7.792098 0.000000 0.000000 0.000000 0.000000 0.000000 0.000000 -0.878298 -5.245697 -1.550490 1.677036 5.149627 1.555963 6.335376 6.956643 -0.709588 -8.369085 -3.850801 -4.761063 0.000000 0.000000 0.000000 0.000000 0.000000 0.000000 1.362821 1.429832 -164.355772 -0.126200 0.347201 3.872365 1.669878 -11.615047 7.987953 0.000000 0.000000 0.000000 0.695732 0.006146 -166.105985 -9.608959 -4.167072 -5.059089 -19.181271 43.647164 -16.985798 0.000000 0.000000 0.000000
82.432381 23.285920 391.202767 1.900610 2.384249 161.289930 -2.104742 -1.614836 -161.193892 -3.476982 2.777427 0.104088 -12.682054 -17.937227 -5.610532 0.000000 0.000000 0.000000 -0.212171 -6.177672 0.330099 -3.484860 2.675952 -5.368475 -0.977927 -9.278026 10.015051 -4.063530 1.649147 -11.726761 0.000000 0.000000 0.000000 0.000000 0.000000 0.000000 -2.678192 -9.007362 -2.112381 3.084139 7.268462 0.961740 8.924001 13.337235 -0.266678 -11.400178 -10.839590 -6.893034 0.000000 0.000000 0.000000 0.000000 0.000000 0.000000 2.110469 2.494656 -165.381822 -0.343531 0.144515 5.559302 -1.144045 -9.786153 4.567753 0.000000 0.000000 0.000000 0.967778 2.616184 -166.233538 -9.615080 -3.744653 -4.445269 -18.994405 40.326942 -15.200840 0.000000 0.000000 0.000000
82.360899 23.499103 391.190983 2.203347 3.417346 156.864284 -2.343653 -1.713474 -156.749691 -3.502168 3.500953 0.170205 -15.639988 -22.753463 -7.981797 0.000000 0.000000 0.000000 -1.578581 -7.550840 -0.589361 -3.161352 2.963058 -5.600552 -0.158822 -9.911511 12.340971 -4.707136 3.001234 -15.033577 0.000000 0.000000 0.000000 0.000000 0.000000 0.000000 -3.620810 -11.166550 -2.362066 4.046871 8.123463 0.268672 9.332052 15.637016 0.115395 -11.807251 -13.490701 -7.579418 0.000000 0.000000 0.000000 0.000000 0.000000 0.000000 1.130831 3.388719 -161.379770 -1.095900 0.146215 7.429153 -3.817025 -10.046194 2.426853 0.000000 0.000000 0.000000 -0.729951 5.239737 -160.667704 -10.408137 -3.349177 -4.904537 -19.630148 42.111046 -14.890225 0.000000 0.000000 0.000000
83.327986 23.450971 392.079525 3.568697 1.263854 154.389461 -0.943552 -1.480495 -154.301706 -3.509001 3.570026 0.146490 -12.806342 -18.588246 -5.929080 0.000000 0.000000 0.000000 -2.170042 -5.581398 -1.092619 -2.578890 2.820403 -5.123717 -0.661586 -9.821575 9.977561 -2.950704 4.435850 -13.389500 0.000000 0.000000 0.000000 0.000000 0.000000 0.000000 -3.341325 -8.959450 -1.844264 3.799807 6.580344 -0.230372 6.860580 13.120597 0.796202 -8.020081 -12.314496 -5.427300 0.000000 0.000000 0.000000 0.000000 0.000000 0.000000 4.125876 2.312707 -159.945970 -0.122959 0.004269 8.190299 -4.471445 -7.263449 0.449000 0.000000 0.000000 0.000000 1.060623 4.052953 -156.471742 -10.428991 -3.296469 -6.384579 -20.121938 39.918709 -13.490115 0.000000 0.000000 0.000000
84.227679 23.308916 392.368776 4.486050 0.074456 147.844982 -0.538328 -1.021375 -147.703353 -3.512669 2.444175 0.121751 -10.806367 -13.104486 -3.973459 0.000000 0.000000 0.000000 -4.057568 -2.595211 -2.237822 -0.974892 1.924558 -2.967260 -0.856646 -7.750854 5.322719 -3.757715 4.990673 -12.931512 0.000000 0.000000 0.000000 0.000000 0.000000 0.000000 -3.662693 -6.209147 -1.531597 3.649504 4.907715 -0.635599 3.234864 11.128575 2.111475 -5.402408 -8.586241 -5.197892 0.000000 0.000000 0.000000 0.000000 0.000000 0.000000 5.224318 1.854139 -155.278157 0.153671 -0.587038 9.462132 -4.297428 -7.514538 1.619809 0.000000 0.000000 0.000000 2.270368 3.503192 -147.798249 -9.219634 -2.501526 -7.528370 -18.015349 34.359565 -12.658412 0.000000 0.000000 0.000000
84.933443 23.000041 392.546684 5.365087 -0.539744 144.611444 -0.016127 -0.992411 -144.438796 -2.654794 3.353152 0.240582 -11.594682 -13.399657 -4.161137 0.000000 0.000000 0.000000 -6.366113 -2.827011 -3.356854 0.557687 0.467792 0.031977 -0.814657 -3.546230 -3.493091 -3.210315 4.352743 -6.980334 0.000000 0.000000 0.000000 0.000000 0.000000 0.000000 -4.849711 -6.461434 -1.511418 3.663605 4.370111 -1.076266 0.994692 10.822953 3.253488 -1.661134 -9.735402 -5.082061 0.000000 0.000000 0.000000 0.000000 0.000000 0.000000 7.430235 3.038651 -151.602681 1.227790 -0.143267 10.034164 -2.811458 -9.389369 2.061894 0.000000 0.000000 0.000000 3.546793 3.434112 -143.151610 -10.384557 -3.242570 -10.139579 -19.779198 34.638298 -10.877870 0.000000 0.000000 0.000000
